<mxfile host="app.diagrams.net" modified="2021-04-21T00:54:56.209Z" agent="5.0 (Windows NT 6.1; Win64; x64) AppleWebKit/537.36 (KHTML, like Gecko) Chrome/89.0.4389.128 Safari/537.36" etag="x7NM_M3EyZ7FA1alEUL0" version="14.6.3" type="github">
  <diagram id="3jMwcgss0DOKGIkN2Wjk" name="Page-1">
    <mxGraphModel dx="981" dy="526" grid="1" gridSize="10" guides="1" tooltips="1" connect="1" arrows="1" fold="1" page="1" pageScale="1" pageWidth="827" pageHeight="1169" math="0" shadow="0">
      <root>
        <mxCell id="0" />
        <mxCell id="1" parent="0" />
        <mxCell id="9LFlscK0z0U3hDA1MHD9-5" value="Pool" style="swimlane;html=1;childLayout=stackLayout;resizeParent=1;resizeParentMax=0;startSize=20;" vertex="1" parent="1">
          <mxGeometry x="230" y="150" width="360" height="480" as="geometry" />
        </mxCell>
        <mxCell id="9LFlscK0z0U3hDA1MHD9-6" value="Lane 1" style="swimlane;html=1;startSize=20;" vertex="1" parent="9LFlscK0z0U3hDA1MHD9-5">
          <mxGeometry y="20" width="120" height="460" as="geometry" />
        </mxCell>
        <mxCell id="9LFlscK0z0U3hDA1MHD9-7" value="Lane 2" style="swimlane;html=1;startSize=20;" vertex="1" parent="9LFlscK0z0U3hDA1MHD9-5">
          <mxGeometry x="120" y="20" width="120" height="460" as="geometry" />
        </mxCell>
        <mxCell id="9LFlscK0z0U3hDA1MHD9-8" value="Lane 3" style="swimlane;html=1;startSize=20;" vertex="1" parent="9LFlscK0z0U3hDA1MHD9-5">
          <mxGeometry x="240" y="20" width="120" height="460" as="geometry" />
        </mxCell>
      </root>
    </mxGraphModel>
  </diagram>
</mxfile>
